<mxfile host="app.diagrams.net" modified="2021-03-16T09:03:06.963Z" agent="5.0 (Windows NT 10.0; Win64; x64) AppleWebKit/537.36 (KHTML, like Gecko) Chrome/89.0.4389.82 Safari/537.36" etag="eRf55EZvAjJvQ2qcccOn" version="14.4.8" type="github">
  <diagram id="160gteVZ_OM-2pYkAI6f" name="第 1 页">
    <mxGraphModel dx="1550" dy="835" grid="1" gridSize="10" guides="1" tooltips="1" connect="1" arrows="1" fold="1" page="1" pageScale="1" pageWidth="827" pageHeight="1169" math="0" shadow="0">
      <root>
        <mxCell id="0" />
        <mxCell id="1" parent="0" />
        <mxCell id="gZ3kUo1DbE4nte8C1hX8-37" style="edgeStyle=orthogonalEdgeStyle;rounded=0;orthogonalLoop=1;jettySize=auto;html=1;exitX=0;exitY=0;exitDx=60;exitDy=0;exitPerimeter=0;entryX=1.017;entryY=0.733;entryDx=0;entryDy=0;entryPerimeter=0;" edge="1" parent="1" source="bNZ7L3KXOHOOpGqRcnxT-2" target="bNZ7L3KXOHOOpGqRcnxT-16">
          <mxGeometry relative="1" as="geometry" />
        </mxCell>
        <mxCell id="bNZ7L3KXOHOOpGqRcnxT-2" value="" style="shape=cube;whiteSpace=wrap;html=1;boundedLbl=1;backgroundOutline=1;darkOpacity=0.05;darkOpacity2=0.1;" parent="1" vertex="1">
          <mxGeometry x="290" y="300" width="140" height="220" as="geometry" />
        </mxCell>
        <mxCell id="gZ3kUo1DbE4nte8C1hX8-9" value="" style="edgeStyle=orthogonalEdgeStyle;rounded=0;orthogonalLoop=1;jettySize=auto;html=1;" edge="1" parent="1" source="bNZ7L3KXOHOOpGqRcnxT-14" target="bNZ7L3KXOHOOpGqRcnxT-2">
          <mxGeometry relative="1" as="geometry" />
        </mxCell>
        <mxCell id="bNZ7L3KXOHOOpGqRcnxT-14" value="mmp项目接口" style="whiteSpace=wrap;html=1;shape=mxgraph.basic.document" parent="1" vertex="1">
          <mxGeometry x="119.5" y="360" width="81" height="100" as="geometry" />
        </mxCell>
        <mxCell id="gZ3kUo1DbE4nte8C1hX8-36" style="edgeStyle=orthogonalEdgeStyle;rounded=0;orthogonalLoop=1;jettySize=auto;html=1;entryX=0.509;entryY=0;entryDx=0;entryDy=0;entryPerimeter=0;" edge="1" parent="1" source="bNZ7L3KXOHOOpGqRcnxT-16" target="bNZ7L3KXOHOOpGqRcnxT-2">
          <mxGeometry relative="1" as="geometry" />
        </mxCell>
        <mxCell id="bNZ7L3KXOHOOpGqRcnxT-16" value="redis server&lt;br&gt;10.33.30.38" style="shape=cube;whiteSpace=wrap;html=1;boundedLbl=1;backgroundOutline=1;darkOpacity=0.05;darkOpacity2=0.1;fontFamily=Lucida Console;" parent="1" vertex="1">
          <mxGeometry x="90" y="210" width="140" height="90" as="geometry" />
        </mxCell>
        <mxCell id="bNZ7L3KXOHOOpGqRcnxT-15" value="&lt;span style=&quot;font-family: &amp;#34;lucida console&amp;#34;&quot;&gt;SltGov.php&lt;/span&gt;&lt;b&gt;&lt;br&gt;&lt;/b&gt;" style="text;html=1;align=center;verticalAlign=middle;resizable=0;points=[];autosize=1;" parent="1" vertex="1">
          <mxGeometry x="115" y="460" width="90" height="20" as="geometry" />
        </mxCell>
        <mxCell id="bNZ7L3KXOHOOpGqRcnxT-25" value="&#xa;thinkphp3" style="shape=module;align=left;spacingLeft=20;align=center;verticalAlign=top;fontFamily=Lucida Console;" parent="1" vertex="1">
          <mxGeometry x="320" y="385" width="100" height="50" as="geometry" />
        </mxCell>
        <mxCell id="bNZ7L3KXOHOOpGqRcnxT-26" value="&#xa;php5.6" style="shape=module;align=left;spacingLeft=20;align=center;verticalAlign=top;fontFamily=Lucida Console;" parent="1" vertex="1">
          <mxGeometry x="320" y="450" width="100" height="50" as="geometry" />
        </mxCell>
        <mxCell id="gZ3kUo1DbE4nte8C1hX8-10" value="&lt;font style=&quot;font-size: 16px&quot;&gt;mmp server&lt;/font&gt;" style="text;strokeColor=none;fillColor=none;html=1;fontSize=24;fontStyle=1;verticalAlign=middle;align=center;" vertex="1" parent="1">
          <mxGeometry x="320" y="320" width="100" height="40" as="geometry" />
        </mxCell>
        <mxCell id="gZ3kUo1DbE4nte8C1hX8-11" value="&lt;span style=&quot;color: rgba(0 , 0 , 0 , 0) ; font-family: monospace ; font-size: 0px&quot;&gt;%3CmxGraphModel%3E%3Croot%3E%3CmxCell%20id%3D%220%22%2F%3E%3CmxCell%20id%3D%221%22%20parent%3D%220%22%2F%3E%3CmxCell%20id%3D%222%22%20value%3D%22%26%2310%3Bthinkphp3%22%20style%3D%22shape%3Dmodule%3Balign%3Dleft%3BspacingLeft%3D20%3Balign%3Dcenter%3BverticalAlign%3Dtop%3BfontFamily%3DLucida%20Console%3B%22%20vertex%3D%221%22%20parent%3D%221%22%3E%3CmxGeometry%20x%3D%22320%22%20y%3D%22385%22%20width%3D%22100%22%20height%3D%2250%22%20as%3D%22geometry%22%2F%3E%3C%2FmxCell%3E%3C%2Froot%3E%3C%2FmxGraphModel%3E&lt;/span&gt;" style="shape=cube;whiteSpace=wrap;html=1;boundedLbl=1;backgroundOutline=1;darkOpacity=0.05;darkOpacity2=0.1;" vertex="1" parent="1">
          <mxGeometry x="520" y="300" width="140" height="220" as="geometry" />
        </mxCell>
        <mxCell id="gZ3kUo1DbE4nte8C1hX8-12" value="&lt;font style=&quot;font-size: 16px&quot;&gt;h5 server&lt;/font&gt;" style="text;strokeColor=none;fillColor=none;html=1;fontSize=24;fontStyle=1;verticalAlign=middle;align=center;" vertex="1" parent="1">
          <mxGeometry x="550" y="320" width="100" height="40" as="geometry" />
        </mxCell>
        <mxCell id="gZ3kUo1DbE4nte8C1hX8-13" value="&#xa;nginx" style="shape=module;align=left;spacingLeft=20;align=center;verticalAlign=top;fontFamily=Lucida Console;" vertex="1" parent="1">
          <mxGeometry x="550" y="385" width="100" height="50" as="geometry" />
        </mxCell>
        <mxCell id="gZ3kUo1DbE4nte8C1hX8-15" value="" style="shape=flexArrow;endArrow=classic;startArrow=classic;html=1;entryX=0.071;entryY=0.591;entryDx=0;entryDy=0;entryPerimeter=0;" edge="1" parent="1" target="gZ3kUo1DbE4nte8C1hX8-11">
          <mxGeometry width="50" height="50" relative="1" as="geometry">
            <mxPoint x="430" y="430" as="sourcePoint" />
            <mxPoint x="480" y="380" as="targetPoint" />
          </mxGeometry>
        </mxCell>
        <mxCell id="gZ3kUo1DbE4nte8C1hX8-16" value="protocol" style="text;html=1;align=center;verticalAlign=middle;resizable=0;points=[];autosize=1;" vertex="1" parent="1">
          <mxGeometry x="450" y="400" width="60" height="20" as="geometry" />
        </mxCell>
        <mxCell id="gZ3kUo1DbE4nte8C1hX8-18" value="deploy" style="text;html=1;align=center;verticalAlign=middle;resizable=0;points=[];autosize=1;" vertex="1" parent="1">
          <mxGeometry x="220" y="390" width="50" height="20" as="geometry" />
        </mxCell>
        <mxCell id="gZ3kUo1DbE4nte8C1hX8-20" value="" style="edgeStyle=orthogonalEdgeStyle;rounded=0;orthogonalLoop=1;jettySize=auto;html=1;" edge="1" parent="1" source="gZ3kUo1DbE4nte8C1hX8-19">
          <mxGeometry relative="1" as="geometry">
            <mxPoint x="660" y="410" as="targetPoint" />
          </mxGeometry>
        </mxCell>
        <mxCell id="gZ3kUo1DbE4nte8C1hX8-19" value="活动页面" style="whiteSpace=wrap;html=1;shape=mxgraph.basic.document" vertex="1" parent="1">
          <mxGeometry x="720" y="360" width="81" height="100" as="geometry" />
        </mxCell>
        <mxCell id="gZ3kUo1DbE4nte8C1hX8-21" value="deploy" style="text;html=1;align=center;verticalAlign=middle;resizable=0;points=[];autosize=1;" vertex="1" parent="1">
          <mxGeometry x="670" y="390" width="50" height="20" as="geometry" />
        </mxCell>
        <mxCell id="gZ3kUo1DbE4nte8C1hX8-28" value="" style="edgeStyle=orthogonalEdgeStyle;rounded=0;orthogonalLoop=1;jettySize=auto;html=1;entryX=0.836;entryY=1.014;entryDx=0;entryDy=0;entryPerimeter=0;" edge="1" parent="1" target="gZ3kUo1DbE4nte8C1hX8-11">
          <mxGeometry relative="1" as="geometry">
            <mxPoint x="680" y="570" as="sourcePoint" />
          </mxGeometry>
        </mxCell>
        <mxCell id="gZ3kUo1DbE4nte8C1hX8-24" value="http" style="text;html=1;align=center;verticalAlign=middle;resizable=0;points=[];autosize=1;" vertex="1" parent="1">
          <mxGeometry x="620" y="575" width="40" height="20" as="geometry" />
        </mxCell>
        <mxCell id="gZ3kUo1DbE4nte8C1hX8-34" value="Web Browser" style="shape=cube;whiteSpace=wrap;html=1;boundedLbl=1;backgroundOutline=1;darkOpacity=0.05;darkOpacity2=0.1;fontFamily=Lucida Console;" vertex="1" parent="1">
          <mxGeometry x="681" y="530" width="120" height="80" as="geometry" />
        </mxCell>
        <mxCell id="gZ3kUo1DbE4nte8C1hX8-35" value="&lt;span&gt;index.html&lt;/span&gt;" style="text;html=1;align=center;verticalAlign=middle;resizable=0;points=[];autosize=1;" vertex="1" parent="1">
          <mxGeometry x="725.5" y="460" width="70" height="20" as="geometry" />
        </mxCell>
        <mxCell id="gZ3kUo1DbE4nte8C1hX8-38" value="token信息存取" style="text;html=1;align=center;verticalAlign=middle;resizable=0;points=[];autosize=1;" vertex="1" parent="1">
          <mxGeometry x="290" y="230" width="90" height="20" as="geometry" />
        </mxCell>
        <mxCell id="gZ3kUo1DbE4nte8C1hX8-39" value="" style="shape=cube;whiteSpace=wrap;html=1;boundedLbl=1;backgroundOutline=1;darkOpacity=0.05;darkOpacity2=0.1;" vertex="1" parent="1">
          <mxGeometry x="191" y="610" width="199" height="80" as="geometry" />
        </mxCell>
        <mxCell id="gZ3kUo1DbE4nte8C1hX8-40" value="" style="shape=flexArrow;endArrow=classic;startArrow=classic;html=1;entryX=0;entryY=0;entryDx=80;entryDy=220;entryPerimeter=0;exitX=0.523;exitY=-0.027;exitDx=0;exitDy=0;exitPerimeter=0;" edge="1" parent="1" source="gZ3kUo1DbE4nte8C1hX8-39" target="bNZ7L3KXOHOOpGqRcnxT-2">
          <mxGeometry width="50" height="50" relative="1" as="geometry">
            <mxPoint x="260" y="560" as="sourcePoint" />
            <mxPoint x="359.94000000000005" y="560.02" as="targetPoint" />
          </mxGeometry>
        </mxCell>
        <mxCell id="gZ3kUo1DbE4nte8C1hX8-41" value="protocol" style="text;html=1;align=center;verticalAlign=middle;resizable=0;points=[];autosize=1;" vertex="1" parent="1">
          <mxGeometry x="340" y="560" width="60" height="20" as="geometry" />
        </mxCell>
        <mxCell id="gZ3kUo1DbE4nte8C1hX8-42" value="&lt;font style=&quot;font-size: 16px&quot;&gt;mp.weixin server&lt;/font&gt;" style="text;strokeColor=none;fillColor=none;html=1;fontSize=24;fontStyle=1;verticalAlign=middle;align=center;" vertex="1" parent="1">
          <mxGeometry x="245.75" y="630" width="100" height="40" as="geometry" />
        </mxCell>
        <mxCell id="gZ3kUo1DbE4nte8C1hX8-52" value="" style="endArrow=none;dashed=1;html=1;exitX=0.5;exitY=1;exitDx=0;exitDy=0;exitPerimeter=0;entryX=0;entryY=0.5;entryDx=0;entryDy=0;entryPerimeter=0;" edge="1" parent="1" source="gZ3kUo1DbE4nte8C1hX8-53" target="gZ3kUo1DbE4nte8C1hX8-39">
          <mxGeometry width="50" height="50" relative="1" as="geometry">
            <mxPoint x="120" y="600" as="sourcePoint" />
            <mxPoint x="191" y="660" as="targetPoint" />
          </mxGeometry>
        </mxCell>
        <mxCell id="gZ3kUo1DbE4nte8C1hX8-53" value="设置MMP的IP白名单&lt;br&gt;设置域名白名单" style="whiteSpace=wrap;html=1;shape=mxgraph.basic.document" vertex="1" parent="1">
          <mxGeometry x="30" y="590" width="130" height="45" as="geometry" />
        </mxCell>
        <mxCell id="gZ3kUo1DbE4nte8C1hX8-54" value="" style="endArrow=none;dashed=1;html=1;" edge="1" parent="1" target="bNZ7L3KXOHOOpGqRcnxT-2">
          <mxGeometry width="50" height="50" relative="1" as="geometry">
            <mxPoint x="190" y="520" as="sourcePoint" />
            <mxPoint x="201" y="670" as="targetPoint" />
          </mxGeometry>
        </mxCell>
        <mxCell id="gZ3kUo1DbE4nte8C1hX8-55" value="项目根目录放mp_verify验证文件" style="whiteSpace=wrap;html=1;shape=mxgraph.basic.document" vertex="1" parent="1">
          <mxGeometry x="61" y="500" width="130" height="45" as="geometry" />
        </mxCell>
      </root>
    </mxGraphModel>
  </diagram>
</mxfile>
